Coordinates
version=1
nRows=6
nColumns=63
inDegrees=yes

Units are S.I. units (second, meters, Newtons, ...)
If the header above contains a line with 'inDegrees', this indicates whether rotational values are in degrees (yes) or radians (no).

endheader
time	pelvis_tilt	pelvis_list	pelvis_rotation	pelvis_tx	pelvis_ty	pelvis_tz	hip_flexion_r	hip_adduction_r	hip_rotation_r	knee_angle_r	knee_angle_r_beta	ankle_angle_r	subtalar_angle_r	mtp_angle_r	hip_flexion_l	hip_adduction_l	hip_rotation_l	knee_angle_l	knee_angle_l_beta	ankle_angle_l	subtalar_angle_l	mtp_angle_l	L5_S1_Flex_Ext	L5_S1_Lat_Bending	L5_S1_axial_rotation	L4_L5_Flex_Ext	L4_L5_Lat_Bending	L4_L5_axial_rotation	L3_L4_Flex_Ext	L3_L4_Lat_Bending	L3_L4_axial_rotation	L2_L3_Flex_Ext	L2_L3_Lat_Bending	L2_L3_axial_rotation	L1_L2_Flex_Ext	L1_L2_Lat_Bending	L1_L2_axial_rotation	L1_T12_Flex_Ext	L1_T12_Lat_Bending	L1_T12_axial_rotation	Abs_r3	Abs_r2	Abs_r1	Abs_t1	Abs_t2	neck_flexion	neck_bending	neck_rotation	arm_flex_r	arm_add_r	arm_rot_r	elbow_flex_r	pro_sup_r	wrist_flex_r	wrist_dev_r	arm_flex_l	arm_add_l	arm_rot_l	elbow_flex_l	pro_sup_l	wrist_flex_l	wrist_dev_l
      2.29629630	     -1.07688012	      3.41129144	     94.43765405	      0.04535569	      0.89394900	      0.54736896	     -1.61761784	      0.78825893	     -7.34481879	     12.41779590	      0.21673142	     35.18234639	      2.25431275	      0.00000000	     -7.67220800	      0.89913025	      0.36588270	      0.30682796	      0.00535516	     35.55110203	     -0.93541647	      0.00000000	     -0.36821249	      0.42318731	     -0.17196601	     -0.68380741	      0.56283912	     -0.18271389	     -0.60493630	      1.02893761	     -0.18271389	     -0.42083005	      1.02893761	     -0.15047026	     -0.34192212	      0.86296355	     -0.13972238	     -0.21039662	      0.65551714	     -0.12897451	     -2.63010499	      4.78717943	     -0.95642336	      0.00000000	      0.00000000	     12.13912063	     -1.01277470	     11.79669334	      6.00301150	    -17.18207877	    154.19307574	      2.04574195	      2.12204450	     -3.30695413	    -10.54061905	      4.82639090	    -10.32404539	    142.46162705	      2.30222736	      2.47880543	     -5.67559674	    -11.15386945
      2.31481481	     -1.18335250	      3.38699453	     94.30572470	      0.04561819	      0.89399111	      0.54745856	     -1.57673607	      0.67418507	     -7.23790556	     12.49076049	      0.21800490	     35.10606390	      2.15839662	      0.00000000	     -7.65640928	      1.02405870	      0.30316493	      0.31084498	      0.00542527	     35.49561091	     -0.97946583	      0.00000000	     -0.37110730	      0.40987991	     -0.14592366	     -0.68918337	      0.54514028	     -0.15504389	     -0.60969219	      0.99658202	     -0.15504389	     -0.42413854	      0.99658202	     -0.12768320	     -0.34461024	      0.83582712	     -0.11856297	     -0.21205071	      0.63490398	     -0.10944274	     -2.65078236	      4.63664354	     -0.81158360	      0.00000000	      0.00000000	     12.30194126	     -0.81028515	     11.85862384	      6.03631049	    -17.11599681	    154.94402601	      1.88980625	      2.26664328	     -3.64521093	    -10.56413796	      4.87173827	    -10.38265406	    141.84851540	      2.37058791	      2.48175450	     -6.12318161	    -11.48777280
      2.33333333	     -1.33421480	      3.34670633	     94.19708838	      0.04574993	      0.89405265	      0.54751506	     -1.52627118	      0.50165538	     -7.07205082	     12.56830358	      0.21935828	     35.04719218	      2.04788701	      0.00000000	     -7.61508468	      1.20153895	      0.17963070	      0.32188142	      0.00561789	     35.46275504	     -0.90261993	      0.00000000	     -0.37130780	      0.39170148	     -0.12194075	     -0.68955571	      0.52096297	     -0.12956205	     -0.61002158	      0.95238298	     -0.12956205	     -0.42436768	      0.95238298	     -0.10669816	     -0.34479642	      0.79875766	     -0.09907686	     -0.21216527	      0.60674559	     -0.09145557	     -2.65221446	      4.43100548	     -0.67819789	      0.00000000	      0.00000000	     12.56492168	     -0.56896721	     11.84395686	      6.04790031	    -17.04650731	    155.74333339	      1.71130797	      2.59477368	     -4.21462614	    -10.57793648	      4.90787384	    -10.43621661	    140.90417183	      2.45299820	      2.67770048	     -6.69538277	    -11.87005517
      2.35185185	     -1.54283897	      3.24642253	     94.11451470	      0.04614718	      0.89409872	      0.54773655	     -1.35011953	      0.25715596	     -7.03843509	     12.78170817	      0.22308289	     35.09826871	      2.05709450	      0.00000000	     -7.42100665	      1.42106260	     -0.09171930	      0.52164890	      0.00910449	     35.52058888	     -0.72349642	      0.00000000	     -0.35938615	      0.35924098	     -0.08886638	     -0.66741601	      0.47779050	     -0.09442053	     -0.59043550	      0.87345852	     -0.09442053	     -0.41074243	      0.87345852	     -0.07775808	     -0.33372597	      0.73256421	     -0.07220393	     -0.20535324	      0.55646428	     -0.06664979	     -2.56705930	      4.06380582	     -0.49424815	      0.00000000	      0.00000000	     12.71147877	     -0.20369306	     11.58259428	      6.28065559	    -16.92284856	    156.02844302	      1.97360315	      4.05547857	     -4.98410074	    -10.53773724	      5.20476797	    -10.65454516	    140.03646641	      2.92912228	      3.64052940	     -7.29208287	    -11.94535782
      2.37037037	     -1.70082490	      3.18152344	     93.85489238	      0.04668168	      0.89400941	      0.54763289	     -1.31075586	      0.06678369	     -6.83095274	     12.76783593	      0.22284078	     35.25133600	      2.32461473	      0.00000000	     -7.46162536	      1.62510769	     -0.15302614	      0.36027556	      0.00628799	     35.30892973	     -1.14382281	      0.00000000	     -0.35658854	      0.33369922	     -0.06090083	     -0.66222058	      0.44381996	     -0.06470713	     -0.58583932	      0.81135628	     -0.06470713	     -0.40754504	      0.81135628	     -0.05328823	     -0.33112812	      0.68047944	     -0.04948193	     -0.20375469	      0.51690009	     -0.04567562	     -2.54707630	      3.77487228	     -0.33871216	      0.00000000	      0.00000000	     13.04861167	      0.38029387	     11.77789576	      6.37447972	    -16.78844493	    162.25145075	      1.18351172	      2.69609792	     -5.96097878	    -10.29101358	      4.97191082	    -10.69966743	    140.94600175	      2.33915572	      2.37165569	     -7.17613933	    -12.53488510
      2.38888889	     -1.71950776	      3.15307616	     93.96699024	      0.04673313	      0.89405681	      0.54764579	     -1.32837438	      0.06233740	     -6.79890138	     12.73290752	      0.22223116	     35.32217836	      2.35277968	      0.00000000	     -7.43043381	      1.62450459	     -0.24124254	      0.38670152	      0.00674921	     35.27315498	     -1.20460427	      0.00000000	     -0.34577361	      0.32823059	     -0.04642222	     -0.64213618	      0.43654668	     -0.04932361	     -0.56807147	      0.79805986	     -0.04932361	     -0.39518466	      0.79805986	     -0.04061944	     -0.32108538	      0.66932782	     -0.03771805	     -0.19757504	      0.50842918	     -0.03481666	     -2.46982634	      3.71301008	     -0.25818646	      0.00000000	      0.00000000	     13.09216541	      0.48397420	     11.75140618	      6.45546913	    -16.79550394	    162.37514212	      1.19138233	      2.80320351	     -6.01413637	    -10.30202285	      5.04276614	    -10.72522474	    140.95277594	      2.32206705	      2.37662615	     -7.17781829	    -12.55906661
